<svg preserveAspectRatio="none" overflow="visible" style="display: block;" width="144" height="72" viewBox="0 0 144 72" fill="none" xmlns="http://www.w3.org/2000/svg">
<g id="instagram">
<path id="Vector" d="M14.2317 17.8813C11.5946 18.9834 8.69472 22.0938 7.77943 26.0061C6.61818 30.9587 11.4461 33.0502 11.8405 32.3678C12.3047 31.5585 10.9727 31.2868 10.7007 28.7188C10.3507 25.398 11.8925 21.6878 13.8382 20.0598C14.2011 19.7622 14.1835 20.1822 14.1835 20.9564C14.1835 22.3525 14.1055 34.844 14.1055 37.452C14.1055 40.9823 13.9607 42.0938 13.6934 43.1914C13.4306 44.3076 13.0055 45.0604 13.3258 45.3534C13.6887 45.6769 15.2306 44.9066 16.1245 43.6606C17.1938 42.1679 17.5707 40.3741 17.6403 38.4273C17.7192 36.0827 17.7146 32.3548 17.7192 30.2327C17.7192 28.2812 17.7498 22.5759 17.6886 19.1411C17.6709 18.3012 15.3317 17.4214 14.2317 17.8813ZM135.818 36.4145C135.441 36.4145 135.262 36.8085 135.117 37.4697C134.618 39.7752 134.092 40.2953 133.413 40.2953C132.655 40.2953 131.976 39.1542 131.797 36.8697C131.661 35.0758 131.682 31.768 131.858 28.4778C131.893 27.8039 131.708 27.1354 129.895 26.4744C129.111 26.1944 127.976 25.7745 127.411 27.1391C125.812 30.9856 125.19 34.0477 125.041 35.2863C125.037 35.3512 124.958 35.3605 124.944 35.2121C124.853 34.2183 124.643 32.4114 124.617 28.6132C124.607 27.879 124.454 27.2438 123.631 26.7275C123.101 26.3956 121.488 25.8004 120.905 26.505C120.406 27.0825 119.824 28.6317 119.215 30.4692C118.724 31.9655 118.382 32.9807 118.382 32.9807C118.382 32.9807 118.386 28.946 118.395 27.4145C118.395 26.8369 118.001 26.645 117.883 26.6097C117.344 26.4522 116.279 26.1944 115.832 26.1944C115.276 26.1944 115.145 26.505 115.145 26.9556C115.145 27.0121 115.053 32.2622 115.053 35.9335V36.4497C114.75 38.1389 113.752 40.4317 112.67 40.4317C111.587 40.4317 111.075 39.473 111.075 35.0981C111.075 32.5468 111.154 31.4362 111.189 29.5894C111.211 28.526 111.254 27.7083 111.251 27.5202C111.241 26.9556 110.255 26.6663 109.8 26.5615C109.34 26.4522 108.941 26.4169 108.626 26.4299C108.188 26.4567 107.877 26.7451 107.877 27.1484V27.7602C107.312 26.8684 106.396 26.2464 105.783 26.0674C104.145 25.5816 102.431 26.0145 101.139 27.8168C100.114 29.2529 99.496 30.8753 99.2556 33.2078C99.0755 34.9145 99.1331 36.6427 99.4525 38.1037C99.0672 39.753 98.357 40.4317 97.5819 40.4317C96.4512 40.4317 95.6372 38.5933 95.7292 35.4124C95.7951 33.3218 96.211 31.8561 96.6704 29.7294C96.8682 28.8236 96.7058 28.3518 96.3074 27.8919C95.9436 27.4802 95.1638 27.2661 94.0472 27.5239C93.2534 27.7121 92.1107 27.9132 91.072 28.0671C91.072 28.0671 91.1332 27.8168 91.1861 27.3755C91.4535 25.0606 88.9342 25.2488 88.1323 25.9886C87.6506 26.4299 87.322 26.9509 87.1993 27.8873C87.0026 29.3753 88.2158 30.0752 88.2158 30.0752C87.8177 31.8951 86.8447 34.2748 85.8329 35.9947C85.2937 36.918 84.8814 37.5967 84.3478 38.3225C84.3429 38.0555 84.3429 37.7838 84.3429 37.5177C84.3337 33.689 84.382 30.675 84.4042 29.5894C84.4264 28.526 84.4701 27.7297 84.4701 27.5414C84.4609 27.1298 84.2205 26.9685 83.7116 26.7757C83.2652 26.6014 82.7352 26.4744 82.1875 26.4299C81.4996 26.378 81.0792 26.7451 81.0922 27.1781V27.7602C80.523 26.8684 79.607 26.2464 79.0025 26.0674C77.3596 25.5816 75.647 26.0145 74.3549 27.8168C73.3339 29.2529 72.659 31.2609 72.4659 33.1856C72.2914 34.9887 72.3219 36.511 72.567 37.7977C72.3044 39.0835 71.5552 40.4317 70.7059 40.4317C69.6234 40.4317 69.0053 39.473 69.0053 35.0981C69.0053 32.5468 69.0842 31.4362 69.1241 29.5894C69.1454 28.526 69.1854 27.7083 69.1807 27.5202C69.176 26.9556 68.1913 26.6663 67.7308 26.5615C67.2537 26.4484 66.837 26.4132 66.5212 26.4299C66.1008 26.4651 65.8075 26.8369 65.8075 27.1215V27.7602C65.2384 26.8684 64.3222 26.2464 63.7133 26.0674C62.075 25.5816 60.3753 26.0239 59.0739 27.8168C58.2245 28.9859 57.5366 30.2847 57.182 33.1642C57.0856 33.9958 57.0373 34.7737 57.0418 35.5005C56.704 37.565 55.2105 39.9458 53.9926 39.9458C53.2741 39.9458 52.5909 38.5626 52.5909 35.6098C52.5909 31.6809 52.8359 26.0804 52.8796 25.538C52.8796 25.538 54.4214 25.5111 54.724 25.5074C55.4908 25.5028 56.1916 25.5204 57.2127 25.4676C57.7297 25.4417 58.2245 23.5995 57.6898 23.3678C57.4532 23.2667 55.7535 23.1749 55.0786 23.1619C54.5096 23.149 52.9361 23.0312 52.9361 23.0312C52.9361 23.0312 53.0774 19.3164 53.1079 18.927C53.1339 18.5942 52.7134 18.4283 52.4685 18.3272C51.8761 18.0741 51.3461 17.9555 50.7241 17.8284C49.8525 17.6495 49.4627 17.8247 49.3884 18.5543C49.2743 19.6622 49.213 22.9089 49.213 22.9089C48.5734 22.9089 46.4051 22.7809 45.769 22.7809C45.1787 22.7809 44.5383 25.3192 45.3579 25.3498C46.3001 25.3851 47.9339 25.4203 49.0199 25.4499C49.0199 25.4499 48.9715 31.1432 48.9715 32.8972V33.4396C48.372 36.5498 46.2732 38.2307 46.2732 38.2307C46.7243 36.1699 45.8044 34.6253 44.14 33.3218C43.5265 32.836 42.3178 31.921 40.9635 30.9281C40.9635 30.9281 41.7479 30.154 42.4441 28.6049C42.9353 27.5063 42.9575 26.2426 41.7479 25.9664C39.7503 25.5074 38.1073 26.9732 37.6126 28.539C37.2357 29.747 37.4333 30.6481 38.1816 31.5798L38.3523 31.7903C37.9059 32.6561 37.284 33.8243 36.7623 34.7301C35.3039 37.2462 34.204 39.2329 33.3759 39.2329C32.7104 39.2329 32.7187 37.2157 32.7187 35.3253C32.7187 33.6973 32.8413 31.2433 32.9378 28.7059C32.9685 27.8696 32.548 27.3885 31.8435 26.9556C31.4135 26.6932 30.502 26.1768 29.972 26.1768C29.184 26.1768 26.8967 26.2815 24.7376 32.5162C24.4656 33.3042 23.9309 34.7347 23.9309 34.7347L23.9792 27.2355C23.9792 27.0603 23.8873 26.8944 23.6729 26.7757C23.309 26.5791 22.3325 26.1768 21.4738 26.1768C21.057 26.1768 20.8509 26.3696 20.8509 26.7498L20.7813 38.4755C20.7813 39.3682 20.8027 40.4093 20.8909 40.8645C20.9781 41.3198 21.123 41.6915 21.2984 41.9141C21.4738 42.129 21.679 42.2951 22.0122 42.3693C22.3232 42.4351 24.0358 42.6491 24.124 41.9975C24.2335 41.2141 24.2372 40.3705 25.1358 37.2072C26.5376 32.289 28.3606 29.8916 29.2192 29.0378C29.3724 28.8894 29.5431 28.8802 29.5339 29.1259C29.4949 30.2059 29.3677 32.8972 29.2805 35.1853C29.0483 41.3152 30.1604 42.4481 31.7598 42.4481C32.9777 42.4481 34.6951 41.2363 36.5395 38.1742C37.6915 36.2617 38.8044 34.3935 39.6101 33.0418C40.1625 33.5573 40.7928 34.1135 41.4193 34.7087C42.8785 36.0865 43.3556 37.3992 43.0364 38.6424C42.7949 39.5953 41.8798 40.5753 40.2543 39.6222C39.781 39.346 39.5796 39.132 39.1023 38.8165C38.848 38.646 38.4535 38.5978 38.2215 38.773C37.6079 39.2329 37.2616 39.8143 37.0601 40.5365C36.8717 41.241 37.5773 41.6081 38.3088 41.9316C38.9352 42.2163 40.285 42.4656 41.1474 42.4963C44.5076 42.6103 47.1978 40.8775 49.0682 36.4145C49.406 40.2695 50.8291 42.4528 53.3047 42.4528C54.9644 42.4528 56.6251 40.313 57.3529 38.2085C57.558 39.066 57.869 39.8096 58.2682 40.4447C60.1786 43.4631 63.8841 42.816 65.7415 40.2518C66.3198 39.4553 66.4081 39.1708 66.4081 39.1708C66.6791 41.5914 68.6331 42.4434 69.7506 42.4434C71.0075 42.4434 72.2959 41.8492 73.202 39.8096C73.3115 40.033 73.4256 40.2435 73.5575 40.4447C75.4631 43.4631 79.1687 42.816 81.031 40.2518C81.1144 40.1248 81.1934 40.02 81.2582 39.919L81.3159 41.5116C81.3159 41.5116 80.2511 42.4833 79.5987 43.0821C76.7293 45.7123 74.5471 47.7074 74.3856 50.0259C74.184 52.988 76.5846 54.0867 78.4068 54.2303C80.3348 54.3842 81.9908 53.3207 83.0062 51.8245C83.9002 50.5117 84.4876 47.6898 84.4441 44.8983C84.4266 43.7783 84.3997 42.3608 84.3735 40.834C85.3854 39.6705 86.5244 38.1908 87.5676 36.4591C88.7104 34.5771 89.9283 32.0434 90.5501 30.0706C90.5501 30.0706 91.615 30.0798 92.7455 30.0094C93.1093 29.9871 93.2142 30.0622 93.1438 30.3246C93.0649 30.6435 91.7162 35.8462 92.9469 39.3117C93.7927 41.6823 95.6891 42.4481 96.8197 42.4481C98.1377 42.4481 99.4003 41.4505 100.074 39.9718C100.158 40.134 100.241 40.2953 100.338 40.4447C102.243 43.4631 105.936 42.8115 107.811 40.2518C108.236 39.6705 108.473 39.1708 108.473 39.1708C108.876 41.6785 110.83 42.4528 111.947 42.4528C113.116 42.4528 114.22 41.976 115.118 39.8578C115.154 40.7905 115.21 41.5515 115.307 41.7916C115.363 41.941 115.697 42.1245 115.933 42.2163C117.002 42.6103 118.089 42.422 118.487 42.3386C118.767 42.282 118.987 42.0633 119.013 41.4858C119.091 39.9718 119.043 37.4297 119.504 35.5357C120.279 32.3679 120.997 31.1386 121.339 30.5304C121.528 30.1883 121.746 30.1318 121.751 30.4905C121.764 31.221 121.804 33.3654 122.105 36.2532C122.321 38.3707 122.614 39.626 122.842 40.0247C123.481 41.1575 124.279 41.2103 124.923 41.2103C125.335 41.2103 126.193 41.0963 126.118 40.3741C126.079 40.0247 126.145 37.8497 126.903 34.7264C127.402 32.6831 128.23 30.841 128.528 30.1669C128.642 29.9176 128.69 30.1104 128.69 30.1494C128.625 31.5539 128.484 36.1522 129.053 38.6637C129.834 42.0725 132.08 42.4528 132.865 42.4528C134.534 42.4528 135.906 41.1835 136.365 37.8414C136.48 37.0357 136.313 36.4145 135.818 36.4145ZM65.7721 34.3499C65.6803 36.117 65.334 37.5965 64.7825 38.6682C63.7745 40.6151 61.7908 41.2278 60.9183 38.4235C60.2833 36.3979 60.4978 33.6323 60.7651 32.1397C61.1503 29.9259 62.1277 28.36 63.652 28.5037C65.2115 28.6576 65.9735 30.6657 65.7721 34.3499ZM81.057 34.3759C80.9698 36.0427 80.5362 37.7226 80.0629 38.6682C79.0863 40.6281 77.0441 41.2408 76.1985 38.4235C75.6212 36.4933 75.7567 34.0041 76.0454 32.4373C76.4184 30.3987 77.316 28.5037 78.9332 28.5037C80.5057 28.5037 81.2806 30.2281 81.057 34.3759ZM81.456 45.7687C81.4338 48.8189 80.9567 51.4879 79.931 52.2667C78.468 53.369 76.5011 52.5375 76.9087 50.3152C77.2678 48.3461 78.9722 46.3381 81.4607 43.8831C81.4607 43.8831 81.4694 44.4429 81.456 45.7687ZM107.847 34.3935C107.758 36.2272 107.351 37.6577 106.848 38.6682C105.87 40.6281 103.847 41.2363 102.983 38.4235C102.515 36.8873 102.492 34.323 102.83 32.1843C103.172 30.0047 104.132 28.36 105.717 28.5037C107.285 28.653 108.017 30.6657 107.847 34.3935Z" fill="black" fill-opacity="0.32"/>
</g>
</svg>
