<svg width="24" height="24" viewBox="0 0 24 24" fill="none" xmlns="http://www.w3.org/2000/svg">
<rect width="24" height="24" rx="3" fill="url(#paint0_linear_88231_14798)"/>
<path d="M15.1406 5.4422C13.9828 5.62033 12.9281 6.35157 12.4593 7.29845L12.314 7.59376H11.8593C10.7203 7.59376 10.3499 7.87033 10.2468 8.79376C10.2093 9.13595 10.214 9.24376 10.2609 9.30001C10.3171 9.36564 10.6124 9.37501 12.9093 9.37501C14.3296 9.37501 15.5203 9.35626 15.5531 9.33283C15.5859 9.31408 15.6328 9.15001 15.6609 8.97189C15.7125 8.57814 15.8718 8.40001 16.0593 8.52189C16.2562 8.64845 19.6218 12.0094 19.6921 12.15C19.8093 12.3797 19.8046 12.6469 19.6781 12.8813C19.6124 12.9985 19.2656 13.3453 18.7921 13.7672C17.9531 14.5125 16.0453 16.2328 15.3562 16.8609C14.9578 17.2266 14.8171 17.3016 14.6906 17.2125C14.5687 17.1328 14.55 17.0109 14.6109 16.6734C14.6859 16.2281 14.6859 16.1438 14.5968 16.0594C14.5312 15.9938 14.2265 15.9844 11.9578 15.9844C9.57183 15.9844 9.38432 15.9891 9.3187 16.0641C9.23432 16.1578 9.0937 17.0156 9.0937 17.4141C9.0937 17.5781 9.12651 17.7422 9.18276 17.8547C9.30464 18.0891 9.60932 18.3563 9.82964 18.4219C9.9562 18.4594 11.5828 18.4688 15.4734 18.4594L20.939 18.4453L21.1687 18.3047C21.4265 18.1406 21.6703 17.7844 21.7171 17.4984C21.7546 17.2875 21.2531 10.875 21.0468 8.88751C20.9531 7.99689 20.5828 7.66407 19.6218 7.60783L19.139 7.5797L18.9937 7.28907C18.4687 6.21564 17.2406 5.47033 15.9187 5.41407C15.6562 5.4047 15.3093 5.41876 15.1406 5.4422ZM16.1812 6.14064C16.7249 6.30939 17.175 6.69845 17.4749 7.25626C17.5593 7.41095 17.625 7.54689 17.625 7.56564C17.625 7.5797 16.6125 7.59845 15.375 7.60314C14.1375 7.61251 13.125 7.59845 13.125 7.5797C13.125 7.45314 13.4156 7.01251 13.6593 6.77345C14.1609 6.28126 14.714 6.05626 15.45 6.05157C15.7546 6.04689 15.9703 6.07501 16.1812 6.14064ZM2.20776 9.74533C2.15151 9.80158 2.10932 9.93283 2.09057 10.1531C2.07182 10.3313 2.04839 10.5094 2.03432 10.5516C2.02026 10.5938 2.04839 10.6641 2.08589 10.7063C2.15151 10.7672 2.28745 10.7813 2.93901 10.7813H3.71245L3.68901 10.9313C3.67026 11.0156 3.57651 11.7281 3.4687 12.5156C3.36557 13.3031 3.2437 14.1609 3.20151 14.4234C3.10307 15.0656 3.07964 15.0469 3.84839 15.0469C4.1812 15.0469 4.45776 15.0281 4.47651 15C4.49057 14.9766 4.61714 14.1188 4.75776 13.0922C4.89839 12.0656 5.02495 11.1281 5.0437 11.0016L5.07651 10.7813H5.83589C6.38901 10.7813 6.60932 10.7672 6.64682 10.7203C6.70776 10.6453 6.81089 9.91408 6.77339 9.80158C6.75932 9.75001 6.69839 9.69845 6.64214 9.68439C6.58589 9.67033 5.58276 9.65626 4.42026 9.65626C2.40932 9.65626 2.29214 9.66095 2.20776 9.74533ZM7.32182 9.76408C7.2937 9.7922 7.16245 10.6219 7.0312 11.6016C6.89526 12.5813 6.73589 13.7203 6.67964 14.1328C6.61401 14.6109 6.59057 14.9109 6.6187 14.9625C6.6562 15.0375 6.73589 15.0469 7.26557 15.0469C7.6312 15.0469 7.87964 15.0281 7.89839 15C7.9312 14.9438 7.9687 14.7188 8.10932 13.6875C8.22182 12.8672 8.2687 12.6797 8.42339 12.4781C8.73276 12.0703 9.47339 12.0188 9.64682 12.3985C9.72651 12.5719 9.72182 12.6891 9.55776 13.8609C9.44057 14.7 9.42182 14.9203 9.4687 14.9766C9.54839 15.075 10.6499 15.0797 10.7296 14.9813C10.7578 14.9484 10.8234 14.6063 10.8749 14.2219C10.9265 13.8375 11.0109 13.2469 11.0624 12.9141C11.2499 11.6813 11.1421 11.2594 10.5703 10.9547C10.4109 10.8703 10.3031 10.8516 9.89057 10.8516C9.29995 10.8563 8.96245 10.9453 8.65307 11.1797C8.5312 11.2688 8.42807 11.3438 8.4187 11.3438C8.41401 11.3438 8.44214 11.0953 8.4937 10.7906C8.6437 9.84845 8.63901 9.84845 8.57807 9.77345C8.49839 9.6797 7.39682 9.67033 7.32182 9.76408ZM11.9718 10.2281C11.9484 10.261 11.9109 10.4625 11.8828 10.6828C11.8078 11.2313 11.8265 11.25 12.5156 11.25C13.1718 11.25 13.1953 11.2313 13.2421 10.6735C13.2609 10.4531 13.2609 10.2516 13.2468 10.2235C13.2 10.1485 12.0187 10.1531 11.9718 10.2281ZM15.1453 10.875C14.1328 11.086 13.4343 12.0563 13.7812 12.7735C13.9265 13.0781 14.2125 13.2281 14.9859 13.411C15.675 13.575 15.7968 13.65 15.7218 13.8609C15.6515 14.0625 15.4031 14.1797 15.0468 14.175C14.7 14.1703 14.325 14.0344 14.2781 13.8938C14.2546 13.8141 14.2031 13.8047 13.7953 13.8188C13.2656 13.8328 13.2 13.8797 13.2468 14.1563C13.3546 14.7563 13.875 15.0469 14.8359 15.0469C15.8953 15.0469 16.6218 14.6625 16.9593 13.9313C17.114 13.5891 17.1281 13.1906 16.9875 12.9985C16.8328 12.7828 16.4765 12.6281 15.8625 12.4969C15.1781 12.3563 15.0656 12.3141 15 12.1922C14.9296 12.0563 15.0468 11.8453 15.2437 11.761C15.5859 11.6156 16.1718 11.7281 16.2421 11.9531C16.2703 12.0375 16.3125 12.0469 16.7531 12.0469C17.0625 12.0469 17.25 12.0281 17.2874 11.9906C17.4187 11.8594 17.2921 11.3344 17.0812 11.1469C16.8421 10.936 16.5468 10.8563 15.9375 10.8469C15.614 10.8375 15.2578 10.8516 15.1453 10.875ZM11.8171 11.6203C11.7515 11.6625 11.6812 12.075 11.4609 13.7578C11.3953 14.2453 11.3343 14.6953 11.3203 14.7563C11.3062 14.8125 11.3156 14.9016 11.3437 14.9531C11.3906 15.0375 11.4421 15.0469 12 15.0469H12.6046L12.6515 14.8688C12.7125 14.6344 12.764 14.2969 12.9468 12.9234C13.0593 12.061 13.0875 11.7422 13.0499 11.6813C13.0078 11.6156 12.9046 11.6016 12.4406 11.5875C12.1359 11.5828 11.8546 11.5969 11.8171 11.6203Z" fill="white"/>
<defs>
<linearGradient id="paint0_linear_88231_14798" x1="0" y1="24" x2="24" y2="0" gradientUnits="userSpaceOnUse">
<stop stop-color="#E74602"/>
<stop offset="0.1" stop-color="#E74703"/>
<stop offset="0.2" stop-color="#E84B09"/>
<stop offset="0.3" stop-color="#E84F0E"/>
<stop offset="0.4" stop-color="#E95313"/>
<stop offset="0.5" stop-color="#EA5819"/>
<stop offset="0.6" stop-color="#EC5F22"/>
<stop offset="0.7" stop-color="#EE662C"/>
<stop offset="0.8" stop-color="#EF6D36"/>
<stop offset="0.9" stop-color="#F1743F"/>
<stop offset="1" stop-color="#F27541"/>
</linearGradient>
</defs>
</svg>
