<svg width="24" height="24" viewBox="0 0 24 24" fill="none" xmlns="http://www.w3.org/2000/svg">
<rect width="24" height="24" rx="3" fill="#1174FF"/>
<path d="M4.08667 16.0814C4.08234 18.7391 9.55479 19.8103 12.1005 18.1626C12.6058 17.8249 13.0746 17.439 13.5039 17.0147C13.4179 16.9572 12.9831 16.6399 12.484 16.3158C12.1185 16.0783 11.709 15.8421 11.4245 15.6738C8.37656 19.1955 4.08667 18.2628 4.08667 16.0814Z" fill="url(#paint0_linear_76326_901)"/>
<path d="M17.9039 6.7669H13.0079V4.46795C13.0079 4.39373 12.9473 4.33435 12.873 4.33435C10.8858 4.33435 10.4498 4.82482 10.4498 5.46558V6.7669H5.80427C5.52717 6.7669 5.40533 7.41075 5.40533 7.86411C5.40533 7.93955 5.46346 8.0014 5.53831 8.0014H10.4504V9.62929H7.19526C6.91693 9.62929 6.79571 10.2929 6.79633 10.7314C6.79633 10.8051 6.85631 10.8644 6.9293 10.8644H13.4668C13.3338 12.0328 13.0153 13.0687 12.5706 13.9643C13.3734 14.3435 14.1768 14.7504 15.0223 15.1252C16.0094 13.5357 16.6131 11.7142 16.6242 9.89895C16.6248 9.75051 16.5055 9.62929 16.3576 9.62929H16.344H13.0066V8.0014H17.6367C17.9138 8.0014 18.0356 7.38415 18.0356 6.90419C18.0356 6.82874 17.9775 6.7669 17.9026 6.7669H17.9039Z" fill="url(#paint1_linear_76326_901)"/>
<path d="M19.3938 19.6656C20.621 19.6656 20.9432 18.1312 20.9995 16.9245C21.0107 16.6882 20.8264 16.4897 20.5906 16.4823C17.231 16.3771 14.8999 15.0436 12.5712 13.9446C15.1411 16.152 16.2426 19.6656 19.3938 19.6656Z" fill="url(#paint2_linear_76326_901)"/>
<path d="M4.0867 16.0808C4.0867 14.9433 5.33606 14.1232 6.85136 14.1232C8.36668 14.1232 9.95003 14.7962 11.4245 15.6732C12.1265 16.0907 12.8192 16.5545 13.5045 17.0141C15.4571 18.3234 17.3509 19.5969 19.2423 19.6618C16.2067 19.5512 15.0996 16.116 12.5718 13.9439C10.8908 13.1503 9.21092 12.478 7.14639 12.478C4.71137 12.4787 3 14.0657 3 16.0808C3 16.3814 3.24307 16.6251 3.54304 16.6251C3.84301 16.6251 4.08608 16.3814 4.08608 16.0808H4.0867Z" fill="white"/>
<path d="M3 16.0808C3 18.0711 4.75034 19.6649 7.14578 19.6649C9.02662 19.6649 10.7015 19.0959 12.0974 18.1639C9.54615 19.8053 4.0867 18.7353 4.0867 16.0808C4.0867 15.7802 3.84363 15.5365 3.54366 15.5365C3.24369 15.5365 3.00062 15.7802 3.00062 16.0808H3Z" fill="url(#paint3_linear_76326_901)"/>
<defs>
<linearGradient id="paint0_linear_76326_901" x1="7.29295" y1="19.1491" x2="9.83126" y2="14.7535" gradientUnits="userSpaceOnUse">
<stop offset="0.28" stop-color="white"/>
<stop offset="0.43" stop-color="white" stop-opacity="0.98"/>
<stop offset="0.61" stop-color="white" stop-opacity="0.91"/>
<stop offset="0.82" stop-color="white" stop-opacity="0.81"/>
<stop offset="1" stop-color="white" stop-opacity="0.7"/>
</linearGradient>
<linearGradient id="paint1_linear_76326_901" x1="10.498" y1="14.3274" x2="12.2793" y2="4.22735" gradientUnits="userSpaceOnUse">
<stop stop-color="white" stop-opacity="0.7"/>
<stop offset="0.08" stop-color="white" stop-opacity="0.78"/>
<stop offset="0.19" stop-color="white" stop-opacity="0.88"/>
<stop offset="0.32" stop-color="white" stop-opacity="0.95"/>
<stop offset="0.45" stop-color="white" stop-opacity="0.99"/>
<stop offset="0.6" stop-color="white"/>
</linearGradient>
<linearGradient id="paint2_linear_76326_901" x1="12.5712" y1="16.8051" x2="21" y2="16.8051" gradientUnits="userSpaceOnUse">
<stop offset="0.16" stop-color="white"/>
<stop offset="1" stop-color="white" stop-opacity="0.5"/>
</linearGradient>
<linearGradient id="paint3_linear_76326_901" x1="3" y1="17.601" x2="12.0974" y2="17.601" gradientUnits="userSpaceOnUse">
<stop offset="0.31" stop-color="white"/>
<stop offset="0.48" stop-color="white" stop-opacity="0.77"/>
<stop offset="0.98" stop-color="white" stop-opacity="0.65"/>
</linearGradient>
</defs>
</svg>
