<svg width="24" height="24" viewBox="0 0 24 24" fill="none" xmlns="http://www.w3.org/2000/svg">
<path d="M7.54756 4.0493C8.86736 2.96454 10.5565 2.43362 12.2595 2.56883C12.2595 2.56883 14.5995 2.5017 15.9987 3.39793C17.398 4.29424 17.8542 6.15184 17.8542 6.15184V13.8188C17.872 13.8454 19.0997 15.6861 19.1296 16.0093C19.1587 16.3353 16.8213 18.2871 16.4851 18.3179C16.15 18.3474 16.0289 18.2883 15.5124 17.8149C15.0999 17.3908 14.7327 16.9241 14.4177 16.4233C14.4177 16.4233 12.077 19.1168 8.52022 18.229C4.98414 17.3463 5.50426 14.152 5.51045 14.1147C5.51045 14.1147 5.40492 11.443 7.45577 10.0591C9.50673 8.67517 13.7175 8.57859 13.7175 8.57859V6.71434C13.7175 6.71434 13.1703 5.23397 11.4069 5.61863C9.64401 6.00322 9.79571 7.4538 9.43135 7.6616C9.06689 7.86874 6.21324 7.51334 6.08858 7.45359C5.96714 7.39417 5.45005 5.85494 7.54756 4.0493ZM13.778 10.8882C13.778 10.8882 11.6116 10.8512 10.5856 11.6284C9.5602 12.4057 9.67452 13.9077 9.67452 13.9077C9.6802 13.9357 10.0522 15.7401 11.7409 15.4468C13.4326 15.1526 13.7739 12.8116 13.778 12.7827V10.8882Z" fill="black"/>
<path d="M2.49958 18.4943C2.49958 18.4943 6.23901 21.3061 11.0722 21.6914C15.9054 22.0767 19.949 19.7672 19.949 19.7672C19.949 19.7672 20.2226 19.7672 20.3136 19.9153C20.3622 20.0594 20.3622 20.2153 20.3136 20.3594C20.3136 20.3594 17.1829 23.7638 11.3456 23.4971C5.50829 23.2304 2.25612 18.9384 2.25612 18.9384C2.25612 18.9384 2.03581 18.6271 2.10425 18.4943C2.17268 18.3615 2.49958 18.4943 2.49958 18.4943Z" fill="#F8981D"/>
<path d="M18.2771 19.206C18.2771 19.206 19.1436 19.1173 19.797 19.1173C20.1636 19.114 20.5299 19.1436 20.8912 19.206C20.8912 19.206 21.1115 19.2947 21.013 19.9756C20.9144 20.6565 20.3062 21.7961 20.4961 21.9294C20.686 22.0628 21.393 21.3743 21.7716 20.509C22.1501 19.6437 22.1362 18.6143 22.0148 18.4665C21.8934 18.3186 20.8901 18.141 19.9172 18.2592C18.9443 18.3775 18.034 19.0874 18.2771 19.206Z" fill="#FC9D12"/>
</svg>
