<svg xmlns="http://www.w3.org/2000/svg" viewBox="0 0 620 416" role="img" aria-label="A message bounced away from a chat bubble">
  <defs>
    <pattern id="dc-dots" width="22" height="22" patternUnits="userSpaceOnUse">
      <circle cx="1.6" cy="1.6" r="1.6" fill="rgba(23,23,23,.05)"/>
    </pattern>
    <linearGradient id="dc-base" x1="0" y1="0" x2="1" y2="1">
      <stop offset="0" stop-color="#7fa8ff"/>
      <stop offset="1" stop-color="#a48bff"/>
    </linearGradient>
    <radialGradient id="dc-a"><stop offset="0" stop-color="#5865f2" stop-opacity=".8"/><stop offset="1" stop-color="#5865f2" stop-opacity="0"/></radialGradient>
    <radialGradient id="dc-b"><stop offset="0" stop-color="#8b5cf6" stop-opacity=".7"/><stop offset="1" stop-color="#8b5cf6" stop-opacity="0"/></radialGradient>
    <radialGradient id="dc-c"><stop offset="0" stop-color="#7ff0ff" stop-opacity=".7"/><stop offset="1" stop-color="#7ff0ff" stop-opacity="0"/></radialGradient>
    <filter id="dc-soft" x="-60%" y="-60%" width="220%" height="220%"><feGaussianBlur stdDeviation="52"/></filter>
    <clipPath id="dc-clip"><rect x="22" y="22" width="576" height="372" rx="18"/></clipPath>
  </defs>

  <rect width="620" height="416" fill="#fbfcfb"/>
  <rect width="620" height="416" fill="url(#dc-dots)"/>

  <rect x="22" y="22" width="576" height="372" rx="18" fill="url(#dc-base)"/>
  <g clip-path="url(#dc-clip)">
    <g filter="url(#dc-soft)">
      <ellipse cx="180" cy="110" rx="210" ry="150" fill="url(#dc-a)"/>
      <ellipse cx="520" cy="300" rx="200" ry="150" fill="url(#dc-b)"/>
      <ellipse cx="480" cy="60" rx="160" ry="110" fill="url(#dc-c)"/>
    </g>

    <g>
      <rect x="238" y="150" width="150" height="92" rx="22" fill="none" stroke="#fff" stroke-width="2.6"/>
      <path d="M266 242l-6 22 26-22" fill="none" stroke="#fff" stroke-width="2.6" stroke-linejoin="round"/>
      <g stroke="#fff" stroke-width="2.6" stroke-linecap="round">
        <path d="M266 184h94" opacity=".55"/>
        <path d="M266 206h60" opacity=".55"/>
      </g>
    </g>

    <g fill="none" stroke="#fff" stroke-width="2.2" stroke-linecap="round">
      <path d="M110 96c60 18 104 40 132 66" stroke-dasharray="2 10"/>
      <path d="M96 300c62-20 110-48 144-74" stroke-dasharray="2 10"/>
      <path d="M396 244c56 30 116 44 196 34" stroke-dasharray="10 12"/>
      <path d="M402 122c50-24 108-34 176-28" stroke-dasharray="10 12"/>
    </g>

    <g fill="#fff">
      <circle cx="424" cy="272" r="30" opacity=".16"/>
      <circle cx="424" cy="272" r="8"/>
      <circle cx="110" cy="96" r="5"/><circle cx="96" cy="300" r="5"/><circle cx="560" cy="186" r="5"/>
      <circle cx="96" cy="190" r="4"/><circle cx="548" cy="330" r="4"/>
    </g>
  </g>

  <g>
    <rect x="470" y="352" width="118" height="40" rx="12" fill="#fff" stroke="#ececec" stroke-width="1.5"/>
    <circle cx="492" cy="372" r="8" fill="none" stroke="#171717" stroke-width="2.4"/>
    <circle cx="492" cy="372" r="3" fill="#171717"/>
    <text x="508" y="377" font-family="Inter, -apple-system, sans-serif" font-size="15" font-weight="700" fill="#171717">IP Ready</text>
  </g>
</svg>
